<?xml version="1.0" encoding="UTF-8" standalone="no"?>
<svg
   viewBox="0 0 510.00601 504.62"
   version="1.1"
   id="svg868"
   sodipodi:docname="espnu.svg"
   width="510.00601"
   height="504.62"
   inkscape:version="1.1.2 (b8e25be833, 2022-02-05)"
   xmlns:inkscape="http://www.inkscape.org/namespaces/inkscape"
   xmlns:sodipodi="http://sodipodi.sourceforge.net/DTD/sodipodi-0.dtd"
   xmlns="http://www.w3.org/2000/svg"
   xmlns:svg="http://www.w3.org/2000/svg">
  <defs
     id="defs872" />
  <sodipodi:namedview
     id="namedview870"
     pagecolor="#ffffff"
     bordercolor="#666666"
     borderopacity="1.0"
     inkscape:pageshadow="2"
     inkscape:pageopacity="0.0"
     inkscape:pagecheckerboard="0"
     showgrid="false"
     fit-margin-top="0"
     fit-margin-left="0"
     fit-margin-right="0"
     fit-margin-bottom="0"
     inkscape:zoom="1.7050781"
     inkscape:cx="254.82703"
     inkscape:cy="252.18786"
     inkscape:window-width="2560"
     inkscape:window-height="1369"
     inkscape:window-x="-8"
     inkscape:window-y="-8"
     inkscape:window-maximized="1"
     inkscape:current-layer="svg868" />
  <path
     fill="#231f20"
     d="m 510.006,311.43 -33.756,-76.77 33.664,-76.7 h -94.57 v -40.21 h 36.37 V 0 h -12.42 -171.33 v 117.47 l 17.954,-0.031 c 0,0 -0.031,16.17 -0.092,40.52 h -65.21 v -40.52 l 17.216,0.031 V 0 H 58.872 v 117.75 h 32.25 v 40.21 H 0.092 L 33.756,234.66 0,311.43 h 91.12 v 114.98 l 77.26,78.21 h 169.7 l 77.26,-78.21 V 311.43 H 510"
     id="path862" />
  <path
     fill="#cc0000"
     d="m 378.116,80.51 h 36.37 V 37.28 h -110.95 v 43.19 l 18.507,-0.031 0.123,77.53 h 55.953 v -77.47 z m -55.57,320.29 -25.394,24.01 h -89.86 l -23.98,-24.01 0.184,-89.37 h -55.09 v 99.67 l 55.58,56.26 h 138.56 l 55.58,-56.26 v -99.67 h -55.738 l 0.154,89.37 m -138.7,-242.82 0.184,-77.53 h 18.292 V 37.29 H 96.158 v 43.23 h 32.25 v 77.47 h 55.43 z"
     id="path864" />
  <path
     fill="#ffffff"
     d="m 147.876,280.36 2.921,-24.687 -49.5,-0.061 1.383,-10.514 49.558,-0.061 2.828,-21.551 h -80.09 l -6.825,56.875 h 79.72 m 262.09,-56.52 -7.132,56.35 h 30.19 l 7.132,-56.35 h -30.19 m -28.53,0 h -31.11 l -7.717,56.2 h 30.743 l 8.09,-56.2 m -53.886,20.83 c 9.377,0 13.404,-6.179 14.726,-12.758 0.615,-3.197 1.445,-8.09 1.445,-8.09 h -85.8 l -7.163,56.38 h 30.16 l 5.01,-35.539 h 41.626 m -168.75,11.007 -2.951,24.533 c 0,0 64.93,0.092 66.71,0 2.183,-0.184 13.742,1.629 21.459,-11.713 2.89,-4.98 4.488,-17.8 4.827,-24.441 0.707,-14.726 -8.331,-20.567 -19.03,-20.659 -5.288,-0.061 -52.725,-0.061 -68.34,0.092 -2.337,14.849 5.903,20.813 14.265,21.12 5.964,0.246 42.918,0.154 42.918,0.154 l -1.076,10.852 -58.781,0.061 m 196.05,-68.279 -3.136,26.16 90.05,0.092 c 0,-0.215 0.061,-1.076 0.338,-4.089 1.599,-17.19 -9.1,-22.17 -19.706,-22.23 -16.509,-0.061 -67.54,0.061 -67.54,0.061 m 86.914,26.266 h -0.031 c 0,0.154 0.031,0 0.031,0 m -277.83,-8.54 c -0.584,3.966 -1.23,8.454 -1.23,8.454 l 182.22,0.092 c 0,0 0.953,-4.796 0.861,-9.161 -0.215,-9.346 -7.348,-16.54 -16.355,-16.694 -8.885,-0.123 -127.8,0 -142.65,0 -12.02,0 -21.766,10.02 -22.842,17.308 m -7.684,8.461 2.951,-26.04 -79.53,-0.031 -3.29,26.07 h 79.871"
     id="path866" />
</svg>
