<?xml version="1.0" encoding="UTF-8" standalone="no"?>
<!-- Generator: Adobe Illustrator 19.2.1, SVG Export Plug-In . SVG Version: 6.00 Build 0)  -->

<svg
   version="1.1"
   id="layer"
   x="0px"
   y="0px"
   viewBox="0 0 600.03438 123.69333"
   xml:space="preserve"
   sodipodi:docname="golf.svg"
   width="158.75909mm"
   height="32.727192mm"
   inkscape:version="1.1.2 (b8e25be833, 2022-02-05)"
   xmlns:inkscape="http://www.inkscape.org/namespaces/inkscape"
   xmlns:sodipodi="http://sodipodi.sourceforge.net/DTD/sodipodi-0.dtd"
   xmlns="http://www.w3.org/2000/svg"
   xmlns:svg="http://www.w3.org/2000/svg"><defs
   id="defs864" /><sodipodi:namedview
   id="namedview862"
   pagecolor="#ffffff"
   bordercolor="#666666"
   borderopacity="1.0"
   inkscape:pageshadow="2"
   inkscape:pageopacity="0.0"
   inkscape:pagecheckerboard="0"
   showgrid="false"
   units="mm"
   fit-margin-top="0"
   fit-margin-left="0"
   fit-margin-right="0"
   fit-margin-bottom="0"
   inkscape:zoom="1.7791411"
   inkscape:cx="304.36034"
   inkscape:cy="65.762069"
   inkscape:window-width="2560"
   inkscape:window-height="1369"
   inkscape:window-x="-8"
   inkscape:window-y="-8"
   inkscape:window-maximized="1"
   inkscape:current-layer="g16"
   inkscape:document-units="mm" />
<style
   type="text/css"
   id="style845">
	.st0{fill:#FFFFFF;}
	.st1{fill:#F36532;}
	.st2{fill:#CE0F3E;}
	.st3{fill:#289EE0;}
	.st4{fill:#7A6BBD;}
	.st5{fill:#59C134;}
	.st6{fill:#FAB80A;}
</style>
<g
   id="g10"
   transform="matrix(1.3333333,0,0,-1.3333333,-21.498956,-146.14666)">
	<g
   id="g12"
   transform="scale(0.1)">
		<g
   id="g14">
			<g
   id="g856">
				<g
   id="g16">
					<path
   id="path22"
   class="st0"
   d="m 1644.6,-1946.3 c 64.6,85.7 45.4,210 -41,273.1 -29,21 -62.8,32.9 -98.4,34.8 39.6,33.6 65.7,80.6 69.7,132.7 4.5,59.8 -19.8,121 -63.4,159.6 -63.2,53.5 -154.7,67.6 -227.8,24.9 10.2,61.3 -10.2,124.6 -56.4,170.6 -34,34.7 -82.9,54.5 -134.2,54.5 -69.5,0 -139.8,-40.7 -170.8,-103.8 -31,63.1 -101.3,103.8 -170.8,103.8 -51.3,0 -100.2,-19.9 -134.2,-54.5 -46.1,-45.9 -66.5,-109.3 -56.4,-170.6 -73,42.7 -164.6,28.6 -227.8,-24.9 -43.6,-38.6 -67.9,-99.8 -63.4,-159.6 3.9,-52.1 30.1,-99.1 69.7,-132.7 -35.6,-1.9 -69.5,-13.8 -98.4,-34.8 -32.8,-23.8 -57.6,-58.1 -71.1,-96.2 -18.3,-64.6 -7.4,-127.8 30.9,-177.9 37.1,-48.4 94.2,-76.2 156.7,-76.2 h 1129.3 c 62.5,0 119.7,27.8 156.8,76.2 l 1,1" />
					<path
   id="path24"
   class="st1"
   d="m 466.4,-1338.7 c -37.3,0 -73.5,-13.7 -104.6,-39.6 -33.2,-29.4 -52.5,-78.2 -49,-124.2 2.5,-33.4 17.7,-81 75.5,-118.7 l 428,-294.9 -207.4,473.4 c -25.9,65.2 -79.2,104 -142.5,104" />
					<path
   id="path26"
   class="st2"
   d="m 880.9,-1213.1 c 15.3,-28.8 24.4,-61.6 18.9,-97.7 0,0 -82.9,-498.5 -83.7,-498.7 l -207.6,474.1 c -18.1,56 -0.9,114.4 39.4,154.4 40.7,41.6 108,53.1 161.1,30.3 28.3,-12 55.1,-34.7 71.9,-62.4" />
					<path
   id="path28"
   class="st3"
   d="m 1378.4,-1338.7 c 37.3,0 73.4,-13.7 104.6,-39.6 33.2,-29.4 52.5,-78.2 49,-124.2 -2.5,-33.4 -17.7,-81 -75.4,-118.7 l -428,-294.9 207.4,473.4 c 25.9,65.2 79.1,104 142.4,104" />
					<path
   id="path30"
   class="st4"
   d="m 1007.4,-1291.5 c 5,0 12.6,-3.8 13.6,-8.6 -26.3,-16.7 -70,-35.1 -64.6,-73.5 l 6.1,-41.9 c 24.4,-146.2 65.7,-393.8 66.2,-393.9 l 207.6,474.1 c 18.1,56 0.9,114.4 -39.4,154.4 -40.7,41.6 -108,53.1 -161.1,30.3 -28.3,-12.2 -55.1,-34.8 -71.9,-62.5 -12.5,-23.6 -20.9,-49.8 -20.5,-78.4 h 64" />
					<path
   id="path32"
   class="st5"
   d="m 1495.3,-1681.2 c 67.1,0 122.9,-49.3 138.1,-100 14.7,-50 6.1,-101 -23.7,-140 -28.9,-37.7 -73.6,-59.4 -122.6,-59.4 h -476.7 l 393,271.1 c 29.2,18.5 61,28.3 91.9,28.3" />
					<path
   id="path34"
   class="st6"
   d="m 349.5,-1681.2 c -67.1,0 -122.9,-49.3 -138.1,-100 -14.7,-50 -6.1,-101 23.7,-140 28.9,-37.7 73.6,-59.4 122.6,-59.4 h 476.7 l -393,271.1 c -29.1,18.5 -61,28.3 -91.9,28.3" />
					<path
   id="path36"
   d="m 3061.1,-1853.3 c -152.4,0 -276.4,131.5 -276.4,293.2 0,161.7 124,293.2 276.4,293.2 152.4,0 276.4,-131.5 276.4,-293.2 0,-161.6 -124,-293.2 -276.4,-293.2 z m 1183.6,574.9 h 312.6 c 16.5,0 32.1,9.7 39.7,24.4 l 64.5,147.5 h -497.1 c -58.5,0 -106.1,-47.5 -106.1,-106 v -765.8 l -49.4,112.6 c -4.9,11 -18.1,24 -38.4,24 h -325.9 v 676.4 c 0,32.4 -26.4,58.9 -58.9,58.9 H 3458.2 V -1249 c 40.9,-83.1 48.8,-161.1 50.3,-187.4 -54.2,192.8 -228.7,340 -447.4,340 -251.9,0 -431.7,-190 -459.4,-396.8 h -249.6 c -23.2,0 -33.4,-16 -36.7,-22.7 l -59.5,-136.1 h 279.7 c -29.5,-101.5 -123.6,-201.4 -266.6,-201.4 -156.4,0 -279,128.8 -279,293.2 0,164.4 123.7,293.2 281.6,293.2 63.8,0 137.5,-26.7 202.5,-73.3 24.6,-17 47.6,3.6 51.6,10.8 l 65,113.3 c -48,42.3 -160.3,119.8 -315.1,119.8 -265.4,0 -473.3,-203.1 -473.3,-462.4 0,-256.4 208.2,-465 464.1,-465 216,0 406.7,154.1 453.5,366.5 0,0 7.5,-82.4 -30.7,-180.7 88.5,-118.2 223.8,-185.8 371.8,-185.8 190.3,0 327.6,109.4 397.1,222.7 V -1907 c 0,-58.8 47.6,-106.7 106.1,-106.7 h 621.3 c 32.6,0 59.1,26.4 59.1,58.9 v 302.6 h 265.9 c 16.5,0 32.2,9.7 39.7,24.4 l 59.1,134.5 h -364.6 v 214.9"
   style="fill:#ffffff" />
				</g>
			</g>
		</g>
	</g>
</g>
</svg>
