<?xml version="1.0" encoding="UTF-8" standalone="no"?>
<!-- Generator: Adobe Illustrator 23.1.0, SVG Export Plug-In . SVG Version: 6.00 Build 0)  -->

<svg
   xmlns:dc="http://purl.org/dc/elements/1.1/"
   xmlns:cc="http://creativecommons.org/ns#"
   xmlns:rdf="http://www.w3.org/1999/02/22-rdf-syntax-ns#"
   xmlns:svg="http://www.w3.org/2000/svg"
   xmlns="http://www.w3.org/2000/svg"
   xmlns:xlink="http://www.w3.org/1999/xlink"
   xmlns:sodipodi="http://sodipodi.sourceforge.net/DTD/sodipodi-0.dtd"
   xmlns:inkscape="http://www.inkscape.org/namespaces/inkscape"
   version="1.1"
   id="Layer_1"
   x="0px"
   y="0px"
   width="1000"
   height="447.11407"
   viewBox="0 0 1000 447.11407"
   enable-background="new 0 0 1000 449.322113"
   xml:space="preserve"
   sodipodi:docname="HBO_Signature_2014_(Stacked).svg"
   inkscape:version="0.92.3 (2405546, 2018-03-11)"><metadata
   id="metadata34"><rdf:RDF><cc:Work
       rdf:about=""><dc:format>image/svg+xml</dc:format><dc:type
         rdf:resource="http://purl.org/dc/dcmitype/StillImage" /></cc:Work></rdf:RDF></metadata><defs
   id="defs32"><linearGradient
     id="linearGradient117"
     inkscape:collect="always"><stop
       id="stop113"
       offset="0"
       style="stop-color:#43413f;stop-opacity:1" /><stop
       id="stop115"
       offset="1"
       style="stop-color:#000000;stop-opacity:1" /></linearGradient><linearGradient
     gradientTransform="translate(-0.03267001,0.20933)"
     gradientUnits="userSpaceOnUse"
     y2="774.05383"
     x2="385"
     y1="810.05383"
     x1="385"
     id="linearGradient119"
     xlink:href="#linearGradient117"
     inkscape:collect="always" /></defs><sodipodi:namedview
   pagecolor="#ffffff"
   bordercolor="#666666"
   borderopacity="1"
   objecttolerance="10"
   gridtolerance="10"
   guidetolerance="10"
   inkscape:pageopacity="0"
   inkscape:pageshadow="2"
   inkscape:window-width="1366"
   inkscape:window-height="705"
   id="namedview30"
   showgrid="false"
   inkscape:zoom="0.49921739"
   inkscape:cx="609.96047"
   inkscape:cy="93.239716"
   inkscape:window-x="-8"
   inkscape:window-y="-8"
   inkscape:window-maximized="1"
   inkscape:current-layer="Layer_1" />

<linearGradient
   id="SVGID_1_"
   gradientUnits="userSpaceOnUse"
   x1="2324.3523"
   y1="-1695.7675"
   x2="2324.3523"
   y2="-1815.1177"
   gradientTransform="matrix(0.2807824,0,0,-0.2807824,-152.63655,-355.5455)">
	<stop
   offset="0"
   style="stop-color:#000000"
   id="stop4" />
	<stop
   offset="1"
   style="stop-color:#000000;stop-opacity:0"
   id="stop6" />
</linearGradient>










<g
   id="g116"><g
     id="g156"
     transform="matrix(0.75795503,0,0,0.75795503,223.98279,-462.44261)"><path
       d="M 188.1596,959.56275 H 94.79735 V 826.21655 H 34.19978 v 133.3462 h -95.85153 l -0.32364,-343.7021 h 96.1755 v 127.8433 h 60.59758 v -127.8433 h 93.36222 z m 427.77346,1.6182 c 96.27502,-0.05 174.62178,-80.0177 174.59331,-176.3125 -0.0245,-98.3168 -78.32399,-174.6786 -174.59331,-174.7496 -96.14993,-0.075 -145.29551,70.7055 -157.4153,99.2871 0.0996,-42.8967 -42.17493,-93.5114 -91.61887,-93.5867 H 207.57967 v 343.6169 l 148.53502,0.05 c 59.90135,0 102.49829,-51.885 102.57356,-96.3744 13.66826,28.009 61.0963,98.0922 157.24481,98.068 z M 343.67097,821.36135 c 13.74284,0 24.57349,13.5687 24.57349,29.0293 0,15.4602 -10.82995,29.0548 -24.57349,29.0548 h -47.22885 v -58.0841 z m 0.17424,-129.014 c 13.74285,0 24.57353,13.5686 24.57353,29.0292 0,15.4602 -10.82999,29.0293 -24.57353,29.0293 h -47.22885 v -58.0585 z m 62.88798,92.5907 c 10.83011,-1.3694 28.85454,-13.7428 35.22842,-21.6593 -2.24069,9.8091 -2.415,38.1666 0.19902,47.9506 -7.24488,-11.1785 -24.42287,-24.9217 -35.4273,-26.2913 z m 121.79333,0 c 0,-48.2987 39.16276,-87.4615 87.46151,-87.4615 48.32426,0 87.48702,39.1628 87.48702,87.4615 0,48.2988 -39.16276,87.4615 -87.48702,87.4615 -48.29875,0 -87.46151,-39.1627 -87.46151,-87.4615 z m 87.46151,68.7646 c 37.99192,0 68.76456,-30.7968 68.76456,-68.7646 0,-37.9678 -30.77264,-68.7646 -68.76456,-68.7646 -37.96785,0 -68.76464,30.7968 -68.76464,68.7646 0,37.9678 30.79679,68.7646 68.76464,68.7646"
       id="path9-4"
       style="opacity:1;fill:url(#linearGradient119);fill-opacity:1;stroke-width:1.1398772"
       inkscape:connector-curvature="0" /><g
       id="text131"
       style="font-style:normal;font-variant:normal;font-weight:bold;font-stretch:normal;font-size:232.66667175px;line-height:1.25;font-family:Gotham;-inkscape-font-specification:'Gotham Bold';letter-spacing:0px;word-spacing:0px;opacity:1;fill:#f7981b;fill-opacity:1;stroke:none"
       aria-label="COMEDY" /></g><g
     aria-label="SIGNATURE"
     style="font-style:normal;font-variant:normal;font-weight:bold;font-stretch:normal;font-size:98.66666412px;line-height:1.25;font-family:Gotham;-inkscape-font-specification:'Gotham Bold';letter-spacing:0px;word-spacing:0px;fill:#b02b1a;fill-opacity:0.95686275;stroke:none"
     id="text60"
     transform="matrix(1.7331828,0,0,1.7331828,-1963.3521,-549.31642)"><path
       d="m 1162.1055,574.71634 c 14.8987,0 25.3573,-7.696 25.3573,-21.41066 v -0.19734 c 0,-12.03733 -7.8933,-17.06933 -21.904,-20.72 -11.9386,-3.05866 -14.8986,-4.53866 -14.8986,-9.07733 v -0.19733 c 0,-3.35467 3.0586,-6.01867 8.88,-6.01867 5.8213,0 11.84,2.56533 17.9573,6.808 l 7.8933,-11.44533 c -7.0053,-5.624 -15.5893,-8.78134 -25.6533,-8.78134 -14.1093,0 -24.1733,8.288 -24.1733,20.81867 v 0.19733 c 0,13.71467 8.9786,17.56267 22.8906,21.11467 11.544,2.96 13.912,4.93333 13.912,8.78133 v 0.19734 c 0,4.04533 -3.7493,6.512 -9.9653,6.512 -7.8933,0 -14.4053,-3.256 -20.6213,-8.38667 l -8.9787,10.75467 c 8.288,7.4 18.8453,11.05066 29.304,11.05066 z"
       id="path63"
       inkscape:connector-curvature="0" /><path
       d="m 1200.7265,573.72968 h 15.1947 v -69.06667 h -15.1947 z"
       id="path65"
       inkscape:connector-curvature="0" /><path
       d="m 1263.2423,574.91368 c 12.6294,0 22.3974,-4.93334 29.5014,-10.952 v -29.99467 h -29.9947 v 13.12267 h 15.2933 v 9.86666 c -3.848,2.76267 -8.7813,4.144 -14.3066,4.144 -12.2347,0 -20.9174,-9.27466 -20.9174,-21.904 v -0.19733 c 0,-11.74133 8.7814,-21.50933 19.832,-21.50933 7.992,0 12.728,2.56533 18.056,7.00533 l 9.5707,-11.544 c -7.2027,-6.11733 -14.7013,-9.472 -27.1333,-9.472 -20.9174,0 -36.2107,16.08267 -36.2107,35.71733 v 0.19734 c 0,20.424 14.8,35.52 36.3093,35.52 z"
       id="path67"
       inkscape:connector-curvature="0" /><path
       d="m 1308.3777,573.72968 h 14.9974 v -43.90667 l 33.448,43.90667 h 12.9253 v -69.06667 h -14.9973 v 42.52533 l -32.3627,-42.52533 h -14.0107 z"
       id="path69"
       inkscape:connector-curvature="0" /><path
       d="m 1377.8519,573.72968 h 15.4907 l 6.3146,-15.49067 h 29.2054 l 6.3146,15.49067 h 15.8854 l -29.6,-69.56 h -14.0107 z m 27.232,-28.90934 9.176,-22.39733 9.176,22.39733 z"
       id="path71"
       inkscape:connector-curvature="0" /><path
       d="m 1467.3087,573.72968 h 15.1947 v -55.056 h 21.016 v -14.01067 h -57.2267 v 14.01067 h 21.016 z"
       id="path73"
       inkscape:connector-curvature="0" /><path
       d="m 1542.0159,574.81501 c 18.5493,0 30.2906,-10.26133 30.2906,-31.17867 v -38.97333 h -15.1946 v 39.56533 c 0,10.952 -5.624,16.576 -14.8987,16.576 -9.2747,0 -14.8987,-5.82133 -14.8987,-17.06933 v -39.072 h -15.1946 v 39.46667 c 0,20.32533 11.3466,30.68533 29.896,30.68533 z"
       id="path75"
       inkscape:connector-curvature="0" /><path
       d="m 1588.1333,573.72968 h 15.1947 v -22.10134 h 11.9387 l 14.8,22.10134 h 17.76 l -16.872,-24.66667 c 8.7813,-3.256 14.8,-10.26133 14.8,-21.41067 v -0.19733 c 0,-6.512 -2.072,-11.93867 -5.92,-15.78667 -4.5387,-4.53866 -11.3467,-7.00533 -20.128,-7.00533 h -31.5734 z m 15.1947,-35.52 v -19.832 h 15.096 c 7.4,0 11.9387,3.35466 11.9387,9.86666 v 0.19734 c 0,5.82133 -4.2427,9.768 -11.6427,9.768 z"
       id="path77"
       inkscape:connector-curvature="0" /><path
       d="m 1657.1854,573.72968 h 52.5893 v -13.51734 h -37.4933 v -14.504 h 32.56 v -13.51733 h -32.56 v -14.01067 h 37 v -13.51733 h -52.096 z"
       id="path79"
       inkscape:connector-curvature="0" /></g></g></svg>