<?xml version="1.0" encoding="utf-8"?>
<svg viewBox="9.175 0.54 151.461 208.457" xmlns="http://www.w3.org/2000/svg">
  <g id="layer1" transform="matrix(1, 0, 0, 1, 246.38718, -440.397406)">
    <g id="g3049" transform="matrix(2.5912984,0,0,-2.5912984,-953.61569,1621.7011)">
      <g id="g3051" transform="matrix(0.5,0,0,0.5,153,198)">
        <path id="path3053" d="m 360,497 c -5.03,-3.59 -14.6,-8.52 -27,-5.47 -21.5,5.27 -27.6,23.8 -27.6,23.8 0,0 -6.13,-18.5 -27.6,-23.8 -12.4,-3.05 -22,1.88 -27,5.47 h -3.87 v -99.7 c 0.005,-2.51 0.614,-7.49 4.7,-12.5 5.05,-6.12 13.6,-10.1 25.4,-11.8 9.43,-1.36 16.4,-4.33 21.3,-9.06 3.61,-3.47 7.04,-9.5 7.04,-9.5 0,0 3.56,6.15 7.05,9.51 4.92,4.72 11.9,7.69 21.3,9.05 11.8,1.71 20.4,5.7 25.4,11.8 4.08,4.97 4.7,9.93 4.71,12.5 V 497 h -3.89" style="fill:#ffffff"/>
        <path id="path3055" d="m 361,493 c 0,0 -11.7,-9.12 -28.2,-5 -19.3,4.81 -26.8,19.2 -26.8,19.2 0,0 -7.48,-14.4 -26.7,-19.2 -16.5,-4.13 -28.3,5 -28.3,5 v -95.8 c 0,-3.25 1.36,-17.1 27.1,-20.8 10.2,-1.48 17.8,-4.74 23.3,-10 1.96,-1.88 3.46,-3.8 4.6,-5.57 1.15,1.77 2.63,3.69 4.6,5.57 5.47,5.26 13.1,8.52 23.3,10 25.8,3.73 27.1,17.5 27.1,20.8 V 493" style="fill:#013369"/>
        <path id="path3057" d="m 306,371 c 0,0 7.48,9.24 26.9,12.2 22.3,3.43 21.6,13.9 21.6,14.4 v 50.2 l -97.1,-0.0142 v -50.2 c 0,-0.529 -0.648,-11 21.6,-14.4 19.4,-3 26.9,-12.2 26.9,-12.2" style="fill:#ffffff"/>
        <g id="g3059" style="fill:#d50a0a">
          <path id="path3061" d="m 283,411 v 23.9 l -2.99,1.68 v 6.19 h 13.6 v -6.19 l -2.85,-1.68 v -48.7 l -7.28,2.18 -10.5,31.1 v -20.5 l 3.34,-2.57 v -6.32 l -14.6,3.73 v 5.37 l 3.34,1.32 v 34.3 l -3.42,1.71 v 6.19 h 11.1 l 10.3,-31.7"/>
          <path id="path3063" d="m 308,389 2.92,-3.49 v -6.19 l -14.5,5.41 v 5.25 l 3.2,1.32 v 43.4 l -3.18,1.61 v 6.27 h 25.2 v -12.6 h -5.53 l -1.68,5.17 h -6.4 v -14.6 h 4.81 l 1.88,2.77 h 3.86 v -12.9 h -3.86 l -1.82,2.62 h -4.87 v -24"/>
          <path id="path3065" d="m 324,387 v 6.2 l 3.59,2.94 v 38.7 l -3.06,1.61 v 6.27 h 14.5 v -6.27 l -2.84,-1.61 v -36.3 l 6.23,1.69 1.19,9.52 h 5.98 v -15.9 l -25.6,-6.84"/>
        </g>
        <g id="g3067" style="fill:#ffffff">
          <path id="path3069" d="m 260,458 -4.39,3.3 h 5.37 l 1.77,5.08 1.78,-5.08 h 5.36 l -4.39,-3.3 1.62,-5.17 -4.37,3.06 -4.36,-3.06 1.61,5.17"/>
          <path id="path3071" d="m 279,458 -4.39,3.3 h 5.37 l 1.77,5.08 1.77,-5.08 h 5.36 l -4.39,-3.3 1.62,-5.17 -4.37,3.06 -4.36,-3.06 1.61,5.17"/>
          <path id="path3073" d="m 260,475 -4.39,3.29 h 5.37 l 1.77,5.09 1.78,-5.09 h 5.36 l -4.39,-3.29 1.62,-5.17 -4.37,3.08 -4.36,-3.08 1.61,5.17"/>
          <path id="path3075" d="m 279,475 -4.39,3.29 h 5.37 l 1.77,5.09 1.77,-5.09 h 5.36 l -4.39,-3.29 1.62,-5.17 -4.37,3.08 -4.36,-3.08 1.61,5.17"/>
          <path id="path3077" d="m 353,453 -4.36,3.06 -4.36,-3.06 1.61,5.17 -4.38,3.3 h 5.37 l 1.77,5.08 1.77,-5.08 h 5.37 l -4.39,-3.3 1.62,-5.17"/>
          <path id="path3079" d="m 334,453 -4.36,3.06 -4.37,-3.06 1.62,5.17 -4.4,3.3 h 5.37 l 1.78,5.08 1.77,-5.08 h 5.37 l -4.39,-3.3 1.62,-5.17"/>
          <path id="path3081" d="m 353,470 -4.36,3.08 -4.36,-3.08 1.61,5.17 -4.38,3.29 h 5.37 l 1.77,5.09 1.77,-5.09 h 5.37 l -4.39,-3.29 1.62,-5.17"/>
          <path id="path3083" d="m 334,470 -4.36,3.08 -4.37,-3.08 1.62,5.17 -4.4,3.29 h 5.37 l 1.78,5.09 1.77,-5.09 h 5.37 l -4.39,-3.29 1.62,-5.17"/>
          <path id="path3085" d="m 318,489 c 0,0 -2.28,-1.18 -5.45,-4.3 0.716,-0.417 1.52,-0.972 1.97,-1.36 -0.475,-0.411 -0.961,-0.88 -1.43,-1.32 -2.06,1.71 -4.21,2.57 -5.87,2.98 0.554,0.382 1.14,0.787 1.72,1.14 0.889,-0.212 1.76,-0.576 1.76,-0.576 3.58,2.73 6.68,3.92 6.68,3.92 0,0 -0.357,0.178 -1.32,0.167 -14.1,-0.192 -27.1,-10.7 -24.6,-28.7 0.268,-1.91 1.01,-5.39 1.95,-6.9 0.312,3 1.44,9.62 4.79,16.7 -1.17,0.411 -2.14,0.582 -2.14,0.582 0.349,0.722 0.821,1.63 0.821,1.63 2.47,-0.47 4.65,-1.51 6.54,-3 -0.453,-0.735 -0.762,-1.21 -0.976,-1.6 -0.662,0.535 -1.33,0.972 -2.07,1.39 -3.76,-6.56 -5.5,-12.8 -6.21,-16 0.0456,-0.192 0.448,-0.297 0.787,-0.256 15.4,2.01 22.7,9.87 24.9,18.4 1.44,5.59 0.977,11.4 -0.958,16.2 -0.145,0.33 -0.406,0.894 -0.85,0.854 m -13.3,-17 c -2.01,1.68 -4.35,2.71 -6.65,3.16 0,0 0.698,1.15 1.1,1.73 2.8,-0.548 5.09,-1.87 6.69,-3.22 -0.415,-0.577 -0.798,-1.14 -1.14,-1.67 m 2.53,3.55 c -1.86,1.59 -4.13,2.73 -6.69,3.26 0.393,0.504 0.851,1.05 1.3,1.53 1.95,-0.33 4.46,-1.35 6.65,-3.17 -0.445,-0.543 -0.868,-1.08 -1.26,-1.62 m 2.83,3.41 c -1.96,1.6 -4.15,2.65 -6.48,3.14 0.566,0.536 1.15,0.986 1.65,1.41 2.91,-0.688 4.87,-2 6.2,-3.12 -0.472,-0.477 -0.942,-0.96 -1.37,-1.44"/>
        </g>
      </g>
    </g>
  </g>
</svg>