<?xml version="1.0" encoding="UTF-8" standalone="no"?>
<!-- Created with Inkscape (http://www.inkscape.org/) -->

<svg
   width="699"
   height="194"
   id="svg2"
   version="1.1"
   inkscape:version="1.1.2 (b8e25be833, 2022-02-05)"
   sodipodi:docname="showtime2.svg"
   xmlns:inkscape="http://www.inkscape.org/namespaces/inkscape"
   xmlns:sodipodi="http://sodipodi.sourceforge.net/DTD/sodipodi-0.dtd"
   xmlns="http://www.w3.org/2000/svg"
   xmlns:svg="http://www.w3.org/2000/svg">
  <defs
     id="defs15" />
  <sodipodi:namedview
     id="namedview13"
     pagecolor="#ffffff"
     bordercolor="#666666"
     borderopacity="1.0"
     inkscape:pageshadow="2"
     inkscape:pageopacity="0.0"
     inkscape:pagecheckerboard="0"
     showgrid="false"
     inkscape:zoom="1.5321888"
     inkscape:cx="349.5"
     inkscape:cy="97.246499"
     inkscape:window-width="2560"
     inkscape:window-height="1369"
     inkscape:window-x="-8"
     inkscape:window-y="-8"
     inkscape:window-maximized="1"
     inkscape:current-layer="layer1" />
  <g
     inkscape:label="Layer 1"
     inkscape:groupmode="layer"
     id="layer1"
     transform="translate(260.80705,139.2842)">
    <path
       id="path37769"
       d="m -123.4791,-40.933781 c 0,-38.865874 14.38257,-63.371139 31.553824,-65.962199 -17.171254,-21.10175 -45.848554,-32.38822 -71.890884,-32.38822 -28.67731,0 -54.43419,12.45025 -72.17635,32.21256 16.92971,3.35959 22.68274,17.566496 22.68274,39.546575 l -20.70651,0 c 0,-12.97725 -2.70085,-19.696435 -10.38619,-19.696435 -3.44742,0 -6.12631,1.75665 -7.7073,4.742954 -0.21958,0.483079 -0.46112,0.988116 -0.6807,1.493153 -0.59287,1.668817 -0.92224,3.601131 -0.92224,5.731069 0,26.87674 44.13582,25.537295 44.13582,66.8624786 0,16.1172608 -12.36242,31.1585734 -26.28387,31.1585734 18.29112,19.98189 43.27946,31.949066 72.0446,31.949066 27.97464,0 53.16061,-11.835427 70.858852,-30.785285 C -109.27219,19.82434 -123.4791,-3.6488912 -123.4791,-40.933781 m -9.22241,64.029881 -22.19966,0 0,-55.202716 -23.97827,0 0,55.202716 -22.24357,0 0,-127.40102 22.19966,0 0,51.316131 24.02218,0 0,-51.316131 22.19966,0 z"
       style="fill:#e51635;fill-rule:nonzero;stroke:none" />
    <path
       id="path37773"
       d="m -241.63355,2.8199712 c 6.19219,0 10.58382,-5.445614 10.58382,-13.3724952 0,-16.446633 -14.36062,-19.608603 -29.75326,-33.508093 -0.21958,28.128353 8.49779,46.8805882 19.16944,46.8805882"
       style="fill:#e51635;fill-rule:nonzero;stroke:none" />
    <path
       id="path37777"
       d="m -101.41777,-42.989061 c 0,-21.453084 6.236105,-42.906168 17.63237,-42.906168 13.54816,0 16.973627,33.156762 16.973627,43.630786 0,22.990153 -7.24618,43.7186191 -16.973627,43.7186191 -11.681721,0 -17.63237,-21.8483301 -17.63237,-44.4432371"
       style="fill:#e51635;fill-rule:nonzero;stroke:none" />
    <path
       id="path37781"
       d="m 120.28459,-102.53509 -17.34691,0 -60.055464,0 -2.788681,0 -13.394454,0 -8.871081,72.76921 -0.35133,0 -9.9250704,-72.76921 -20.3551786,0 -10.781437,72.76921 -0.35133,0 -8.014714,-72.76921 -20.530843,0 16.534465,123.931632 19.828183,0 11.1547257,-78.500283 0.3293718,0 10.8033955,78.500283 20.530843,0 13.701868,-104.784154 19.191397,0 0,104.784154 22.638823,0 0,-104.784154 20.706511,0 0,104.784154 22.63882,0 0,-123.931632 z"
       style="fill:#e51635;fill-rule:nonzero;stroke:none" />
    <path
       id="path37785"
       d="m 136.68292,-102.53509 30.12654,0 10.07878,63.524841 0.35133,0 10.62773,-63.524841 29.40192,0 0,123.931632 -20.17951,0 0,-90.862705 -0.35133,0 -15.32677,90.862705 -12.51613,0 -15.1511,-90.862705 -0.32937,0 0,90.862705 -16.73209,0 z"
       style="fill:#e51635;fill-rule:nonzero;stroke:none" />
    <path
       id="path37789"
       d="m 228.39321,-102.53509 51.18438,0 0,19.147478 -28.54556,0 0,31.663611 21.03588,0 0,20.201471 -21.03588,0 0,33.7715901 29.75325,0 0,19.1474819 -52.39207,0 z"
       style="fill:#e51635;fill-rule:nonzero;stroke:none" />
    <path
       id="path37793"
       d="m 333.68679,1.9350589 c 0.10979,-11.2425579 4.23791,-21.8702889 11.54997,-29.3360499 6.36785,-6.587436 13.57012,-11.132767 19.30119,-15.436559 5.59932,-4.413582 9.63961,-8.717374 9.63961,-14.668025 0,-6.828975 -3.79875,-11.001018 -9.52982,-11.001018 -9.55178,0 -12.20872,8.234295 -12.29655,17.851952 l -16.86384,0 c -1.05399,-21.892246 10.60578,-36.69202 29.0506,-36.69202 14.62411,0 27.66723,9.11262 27.66723,27.952688 0,16.951669 -10.16661,23.275608 -20.99196,31.246406 -5.62128,4.172043 -8.58563,6.301981 -13.35054,11.879344 l 35.08908,0 0,18.2032819 z"
       style="fill:#ffffff;fill-rule:nonzero;stroke:none" />
    <path
       id="path37797"
       stroke-miterlimit="4"
       d="m 430.12905,-40.54073 c 0,-36.252858 -29.37997,-65.63282 -65.63282,-65.63282 -36.25286,0 -65.65478,29.379962 -65.65478,65.63282 0,36.2528574 29.40192,65.632823 65.65478,65.632823 36.25285,0 65.63282,-29.3799656 65.63282,-65.632823 z"
       style="fill:none;stroke:#fffff7;stroke-width:12.6917944;stroke-linecap:butt;stroke-linejoin:miter;stroke-miterlimit:4;stroke-opacity:1" />
    <path
       id="path37801"
       d="m 419.91633,-97.937063 0,-9.815277 -3.73288,0 0,-1.69078 9.44199,0 0,1.69078 -3.79875,0 0,9.815277 z m 7.00464,0 0,-11.506057 2.78868,0 2.87651,9.1785 2.8326,-9.1785 2.76673,0 0,11.506057 -1.75665,0 0,-9.683527 -2.96435,9.683527 -1.73469,0 -3.05218,-9.815277 0,9.815277 z"
       style="fill:#221e1f;fill-rule:nonzero;stroke:none" />
  </g>
</svg>
