<?xml version="1.0" encoding="utf-8"?>
<!-- Generator: Adobe Illustrator 16.0.0, SVG Export Plug-In . SVG Version: 6.00 Build 0)  -->
<!DOCTYPE svg PUBLIC "-//W3C//DTD SVG 1.1//EN" "http://www.w3.org/Graphics/SVG/1.1/DTD/svg11.dtd">
<svg version="1.1" id="Layer_2" xmlns="http://www.w3.org/2000/svg" xmlns:xlink="http://www.w3.org/1999/xlink" x="0px" y="0px"
	 width="1000px" height="570.094px" viewBox="-202.36 135.898 1000 570.094" enable-background="new -202.36 135.898 1000 570.094"
	 xml:space="preserve">
<title>TBS_black</title>
<g>
	<polygon points="636.979,135.898 -202.36,135.898 -202.36,545.331 -41.699,705.992 797.64,705.992 797.64,296.56 	"/>
	<polygon fill="#FFFFFF" points="74.419,431.999 -2.884,431.999 -2.884,612.149 -108.517,507.011 -108.517,229.741 -2.884,229.741 
		-2.884,326.367 74.419,326.367 	"/>
	<path fill="#FFFFFF" d="M281.265,622.306c-32.702,0.02-64.575-10.301-91.061-29.48v19.818h-89.09V229.741h101.539v103.341
		c23.781-14.147,50.94-21.616,78.612-21.619c85.924,0,155.584,69.658,155.584,155.585c0,85.929-69.66,155.584-155.584,155.584l0,0
		V622.306z"/>
	<path fill="#FFFFFF" d="M723.451,512.903c0,61.909-50.934,99.74-130.036,99.74h-73.863l-77.79-77.794h154.765
		c7.309,0.507,13.645-5.007,14.15-12.315c0.48-6.941-4.479-13.073-11.365-14.05l-29.48-6.552
		c-65.51-14.412-124.139-32.757-124.139-94.662l0,0C445.037,350.44,489.419,306.55,570.65,306.55h56.012l76.972,76.973H570.486
		c-7.408,0.335-13.145,6.609-12.813,14.018c0.262,5.823,4.246,10.811,9.866,12.352l29.477,6.551
		c74.847,16.375,125.945,35.7,125.945,95.151L723.451,512.903z"/>
	<path d="M281.265,413.003c-29.848-0.09-54.119,24.032-54.209,53.88c-0.09,29.849,24.032,54.119,53.881,54.209
		c29.848,0.091,54.12-24.032,54.208-53.88c0-0.11,0-0.22,0-0.329C335.145,437.126,311.02,413.003,281.265,413.003L281.265,413.003z"
		/>
</g>
</svg>
