<?xml version="1.0" encoding="utf-8"?>
<!-- Generator: Adobe Illustrator 21.0.2, SVG Export Plug-In . SVG Version: 6.00 Build 0)  -->
<svg version="1.1" id="Layer_1" xmlns="http://www.w3.org/2000/svg" xmlns:xlink="http://www.w3.org/1999/xlink" x="0px" y="0px"
	 viewBox="0 0 275 135" style="enable-background:new 0 0 275 135;" xml:space="preserve">
<style type="text/css">
	.st0{fill:#FFFFFF;}
	.st1{fill:#EC1C24;}

</style>
<!-- <rect class="st0" width="275" height="135"/> -->
<g>
	<g>
		<path class="st0" d="M58.3,122.1v-20.6h13.6v3.6h-9.5v4.8h8.1v3.6h-8.1v5h9.5v3.6H58.3z"/>
		<path class="st0" d="M88.2,122.1L80,109.4V122h-4v-20.6h3.6l8.1,12.6v-12.6h4V122L88.2,122.1L88.2,122.1z"/>
		<path class="st0" d="M99.8,122.2c-2.2,0-3.8-0.6-5.3-2.1l2.7-2.6c0.7,0.7,1.3,1.2,2.6,1.2c2,0,3.2-1.2,3.2-3.5v-13.6h4v13.8
			C107,119.8,103.6,122.2,99.8,122.2z"/>
		<path class="st0" d="M124.2,120c-1.4,1.4-3.2,2.3-5.5,2.3s-4.1-0.8-5.6-2.3c-2.1-2.1-2-4.7-2-8.2s-0.1-6.1,2-8.2c1.4-1.4,3.2-2.3,5.6-2.3
			c2.3,0,4.1,0.8,5.5,2.3c2.1,2.1,2.1,4.7,2.1,8.2S126.3,117.9,124.2,120z M121.3,106c-0.6-0.7-1.5-1.1-2.6-1.1s-2,0.4-2.6,1.1
			c-0.8,0.9-1,1.8-1,5.8s0.2,4.9,1,5.8c0.6,0.7,1.5,1.1,2.6,1.1s2-0.4,2.6-1.1c0.8-0.9,1-1.8,1-5.8S122,106.9,121.3,106z"/>
	</g>
	<g>
		<path class="st0" d="M138.1,113.6v8.4h-4v-8.4l-6.2-12.1h4.4l3.8,8.3l3.8-8.3h4.4L138.1,113.6z"/>
		<path class="st0" d="M158,105.1v5.1h8.1v3.6H158v8.4h-4v-20.6h13.6v3.6L158,105.1L158,105.1z"/>
		<path class="st0" d="M182.2,122.1l-4-8.2h-2.9v8.2h-4v-20.6h8.1c4.2,0,6.7,2.9,6.7,6.3c0,2.9-1.8,4.7-3.8,5.4l4.6,8.9
			C186.9,122.1,182.2,122.1,182.2,122.1z M179,105.1h-3.8v5.4h3.8c1.8,0,2.9-1.1,2.9-2.7C182,106.2,180.8,105.1,179,105.1z"/>
		<path class="st0" d="M190.4,122.1v-20.6H204v3.6h-9.5v4.8h8.1v3.6h-8.1v5h9.5v3.6H190.4z"/>
		<path class="st0" d="M208.1,122.1v-20.6h13.6v3.6h-9.5v4.8h8.1v3.6h-8.1v5h9.5v3.6H208.1z"/>
	</g>
</g>
<g>
	<g>
		<g>
			<path class="st1" d="M245.8,77.6c-2,0-3.6-1.6-3.6-3.6s1.6-3.6,3.6-3.6s3.6,1.6,3.6,3.6S247.8,77.6,245.8,77.6z M245.8,71
				c-1.7,0-3.1,1.4-3.1,3.1s1.4,3.1,3.1,3.1s3.1-1.4,3.1-3.1S247.5,71,245.8,71z"/>
		</g>
		<path class="st1" d="M247.3,76.1l-0.8-1.9c0.5-0.1,0.7-0.5,0.7-1c0-0.3-0.2-0.7-0.4-0.9c-0.3-0.2-0.6-0.2-0.9-0.2h-1.5v4h0.5v-1.7
			h1.1l0.7,1.7H247.3L247.3,76.1z M244.9,73.9v-1.4h1c0.2,0,0.4,0,0.6,0.1c0.2,0.1,0.3,0.3,0.3,0.5s-0.1,0.4-0.2,0.5
			c-0.2,0.2-0.4,0.2-0.7,0.2h-1L244.9,73.9L244.9,73.9z"/>
	</g>
	<g>
		<g>
			<path class="st1" d="M80.4,53.3c0-15.3,5.7-25,12.4-26c-6.7-8.3-18-12.7-28.3-12.7c-11.3,0-21.4,4.9-28.4,12.7
				c6.7,1.3,8.9,6.9,8.9,15.6h-8.2c0-5.1-1.1-7.8-4.1-7.8c-1.4,0-2.4,0.7-3,1.9c-0.1,0.2-0.2,0.4-0.3,0.6C29.2,38.3,29,39,29,39.9
				C29,50.5,46.4,50,46.4,66.2c0,6.4-4.9,12.3-10.4,12.3c7.2,7.9,17,12.6,28.4,12.6c11,0,20.9-4.7,27.9-12.1
				C86,77.2,80.4,68,80.4,53.3z M76.8,78.5H68V56.8h-9.4v21.7h-8.8V28.3h8.7v20.2H68V28.3h8.7v50.2H76.8z"/>
			<path class="st1" d="M33.9,70.5c2.4,0,4.2-2.2,4.2-5.3c0-6.5-5.7-7.7-11.7-13.2C26.3,63.1,29.7,70.5,33.9,70.5z"/>
			<path class="st1" d="M89.1,52.5c0-8.4,2.5-16.9,6.9-16.9c5.3,0,6.7,13.1,6.7,17.2c0,9.1-2.9,17.2-6.7,17.2
				C91.5,70,89.1,61.4,89.1,52.5z"/>
		</g>
		<g>
			<polygon class="st1" points="176.4,29 169.6,29 146,29 144.9,29 139.6,29 136.1,57.7 136,57.7 132,29 124,29 119.8,57.7 
				119.6,57.7 116.5,29 108.4,29 114.9,77.8 122.7,77.8 127.1,46.9 127.2,46.9 131.5,77.8 139.6,77.8 145,36.6 152.5,36.6 
				152.5,77.8 161.5,77.8 161.5,36.6 169.6,36.6 169.6,77.8 178.5,77.8 178.5,29 			"/>
			<path class="st1" d="M182.9,29h11.9l4,25h0.1l4.2-25h11.6v48.8h-8V42.1h-0.1l-6,35.8h-4.9l-6-35.8h-0.1v35.8H183L182.9,29
				L182.9,29z"/>
			<path class="st1" d="M219,29h20.2v7.5H228V49h8.3v8H228v13.3h11.7v7.5H219V29z"/>
		</g>
	</g>
</g>
</svg>
