<?xml version="1.0" encoding="UTF-8" standalone="no"?>
<!-- Generator: Adobe Illustrator 25.4.1, SVG Export Plug-In . SVG Version: 6.00 Build 0)  -->

<svg
   version="1.1"
   id="Layer_1"
   x="0px"
   y="0px"
   viewBox="0 0 1366 324"
   xml:space="preserve"
   sodipodi:docname="logo-worldvue-white.svg"
   width="1366"
   height="324"
   inkscape:version="1.1.2 (b8e25be833, 2022-02-05)"
   xmlns:inkscape="http://www.inkscape.org/namespaces/inkscape"
   xmlns:sodipodi="http://sodipodi.sourceforge.net/DTD/sodipodi-0.dtd"
   xmlns="http://www.w3.org/2000/svg"
   xmlns:svg="http://www.w3.org/2000/svg"><defs
   id="defs916" /><sodipodi:namedview
   id="namedview914"
   pagecolor="#ffffff"
   bordercolor="#666666"
   borderopacity="1.0"
   inkscape:pageshadow="2"
   inkscape:pageopacity="0.0"
   inkscape:pagecheckerboard="0"
   showgrid="false"
   height="767px"
   inkscape:zoom="0.71486091"
   inkscape:cx="447.63953"
   inkscape:cy="371.40092"
   inkscape:window-width="2199"
   inkscape:window-height="1082"
   inkscape:window-x="84"
   inkscape:window-y="67"
   inkscape:window-maximized="0"
   inkscape:current-layer="Layer_1" />
<style
   type="text/css"
   id="style871">
	.st0{fill:#FFFFFF;}
</style>











<g
   id="g1036"
   transform="matrix(1.5854522,0,0,1.5886073,-382.72817,-452.11764)"
   style="fill:#ffffff"><g
     id="g879"
     style="fill:#ffffff">
	<path
   class="st0"
   d="m 371.1,333.8 c 1,-13.3 9.3,-27.4 21.9,-34.5 l 1,1.9 c -12,6.7 -19.8,19.4 -20.8,32.6"
   id="path873"
   style="fill:#ffffff" />
	<path
   class="st0"
   d="m 439,377.2 -0.9,-1.8 c 12,-6.7 18.4,-18.5 20.8,-32.7 h 2.1 c -2.5,15 -9.4,27.4 -22,34.5 z"
   id="path875"
   style="fill:#ffffff" />
	<circle
   class="st0"
   cx="416"
   cy="338.20001"
   r="34.799999"
   id="circle877"
   style="fill:#ffffff" />
</g><rect
     x="241.39999"
     y="442"
     class="st0"
     width="826.5"
     height="8.3999996"
     id="rect881"
     style="fill:#ffffff" /><g
     id="g893"
     style="fill:#ffffff">
	<path
   class="st0"
   d="m 258.2,483.1 c 0,3.2 -2.5,5.1 -7.4,5.1 h -9.4 v -18.9 h 8.9 c 4.5,0 7,1.9 7,4.9 0,1.9 -1,3.4 -2.4,4.2 1.9,0.6 3.3,2.2 3.3,4.7 z m -13.3,-11 v 5.2 h 5 c 2.4,0 3.8,-0.9 3.8,-2.6 0,-1.8 -1.4,-2.6 -3.8,-2.6 z m 9.8,10.6 c 0,-1.9 -1.4,-2.7 -4.1,-2.7 h -5.7 v 5.5 h 5.7 c 2.6,-0.1 4.1,-0.9 4.1,-2.8 z"
   id="path883"
   style="fill:#ffffff" />
	<path
   class="st0"
   d="m 276.5,481.5 v 6.7 H 273 v -6.6 l -7.4,-12.3 h 3.8 l 5.5,9.2 5.6,-9.2 h 3.5 z"
   id="path885"
   style="fill:#ffffff" />
	<path
   class="st0"
   d="m 334.8,469.3 -6.3,18.9 h -3.7 l -4.7,-14 -4.8,14 h -3.8 l -6.3,-18.9 h 3.6 l 4.7,14.4 4.9,-14.4 h 3.2 l 4.8,14.4 4.8,-14.4 z"
   id="path887"
   style="fill:#ffffff" />
	<path
   class="st0"
   d="m 342.9,478.8 c 0,-5.6 4.3,-9.7 10.1,-9.7 3.1,0 5.7,1.1 7.5,3.2 l -2.3,2.1 c -1.4,-1.5 -3.1,-2.2 -5,-2.2 -3.9,0 -6.7,2.8 -6.7,6.6 0,3.8 2.8,6.6 6.7,6.6 2,0 3.7,-0.7 5,-2.2 l 2.3,2.2 c -1.8,2.1 -4.4,3.2 -7.5,3.2 -5.8,-0.1 -10.1,-4.2 -10.1,-9.8 z"
   id="path889"
   style="fill:#ffffff" />
	<path
   class="st0"
   d="m 370.6,469.3 h 3.5 v 18.9 h -3.5 z"
   id="path891"
   style="fill:#ffffff" />
</g><g
     id="g897"
     style="fill:#ffffff">
	<path
   class="st0"
   d="m 1102.5,294 c 0,5.4 -4.2,9.6 -9.6,9.6 -5.4,0 -9.5,-4.2 -9.5,-9.5 0,-5.3 4.1,-9.5 9.6,-9.5 5.5,0 9.5,4 9.5,9.4 z m -1.6,0 c 0,-4.5 -3.3,-8 -7.9,-8 -4.6,0 -8,3.5 -8,8 0,4.5 3.4,8 8,8 4.4,0.1 7.9,-3.5 7.9,-8 z m -5.2,1.7 2.4,3.6 h -2.3 l -2.1,-3.2 h -0.3 -2.1 v 3.2 h -2.3 v -10.6 h 4.4 c 2.8,0 4.5,1.5 4.5,3.7 -0.1,1.6 -0.8,2.7 -2.2,3.3 z m -2.5,-1.4 c 1.5,0 2.4,-0.7 2.4,-1.9 0,-1.2 -0.9,-1.9 -2.4,-1.9 h -2 v 3.8 z"
   id="path895"
   style="fill:#ffffff" />
</g><path
     class="st0"
     d="M 345.4,303.4 322.5,372 H 312.2 L 293.5,317.2 274.8,372 h -10.5 l -22.9,-68.6 h 10.1 l 18.5,55.8 19.3,-55.8 h 9 l 18.9,56.1 18.9,-56.1 z"
     id="path899"
     style="fill:#ffffff" /><path
     class="st0"
     d="M 541.5,372.1 526.7,351 c -1.4,0.1 -2.8,0.2 -4.3,0.2 h -17 v 20.9 h -9.8 v -68.6 h 26.8 c 17.8,0 28.6,9 28.6,23.9 0,10.6 -5.5,18.2 -15.1,21.7 l 16.3,23 z m -0.3,-44.7 c 0,-9.8 -6.6,-15.4 -19.1,-15.4 h -16.7 v 30.9 h 16.7 c 12.5,-0.1 19.1,-5.7 19.1,-15.5 z"
     id="path901"
     style="fill:#ffffff" /><path
     class="st0"
     d="m 601.8,303.4 h 9.8 v 60.1 h 37.1 v 8.5 h -46.9 z"
     id="path903"
     style="fill:#ffffff" /><path
     class="st0"
     d="M 697.1,303.4 H 726 c 22.1,0 37,13.9 37,34.3 0,20.4 -15,34.3 -37,34.3 h -28.9 z m 28.3,60.1 c 17,0 27.8,-10.4 27.8,-25.8 0,-15.4 -10.9,-25.8 -27.8,-25.8 h -18.5 v 51.6 z"
     id="path905"
     style="fill:#ffffff" /><path
     class="st0"
     d="M 867.4,303.4 837.3,372 h -9.7 L 797.4,303.4 H 808 l 24.7,56.4 24.9,-56.4 z"
     id="path907"
     style="fill:#ffffff" /><path
     class="st0"
     d="m 911.1,342.5 v -39 h 9.8 v 38.6 c 0,15.2 7,22.1 19.3,22.1 12.3,0 19.4,-6.9 19.4,-22.1 v -38.6 h 9.5 v 39 c 0,19.9 -10.9,30.4 -29,30.4 -18.1,-0.1 -29,-10.6 -29,-30.4 z"
     id="path909"
     style="fill:#ffffff" /><path
     class="st0"
     d="m 1068,363.5 v 8.5 h -49.8 v -68.6 h 48.4 v 8.5 H 1028 V 333 h 34.4 v 8.3 H 1028 v 22.1 h 40 z"
     id="path911"
     style="fill:#ffffff" /></g></svg>
