<?xml version="1.0" encoding="utf-8"?>
<!-- Generator: Adobe Illustrator 25.4.1, SVG Export Plug-In . SVG Version: 6.00 Build 0)  -->
<svg version="1.1" id="Layer_1" xmlns="http://www.w3.org/2000/svg" xmlns:xlink="http://www.w3.org/1999/xlink" x="0px" y="0px"
	 viewBox="0 0 200 200" style="enable-background:new 0 0 200 200;" xml:space="preserve">
<style type="text/css">
	.st0{fill:#FFD295;}
	.st1{fill:#F37226;}
	.st2{fill:#07529E;}
	.st3{fill:#022140;}
</style>
<g>
	<g>
		<g>
			<path class="st0" d="M101.3,63H56.5c-7,0-12.7,5.7-12.7,12.7v102.6c0,7,5.7,12.7,12.7,12.7h44.8c7,0,12.7-5.7,12.7-12.7V75.8
				C114,68.7,108.3,63,101.3,63z M108.6,177.6H49.1V79.1h59.5V177.6z"/>
		</g>
		<g>
			<path class="st0" d="M78.9,107.3c-11.2,0-20.3,9.1-20.3,20.3c0,11.2,9.1,20.3,20.3,20.3c11.2,0,20.3-9.1,20.3-20.3
				C99.2,116.4,90.1,107.3,78.9,107.3z M74,138.4v-20.1l17.4,10.1L74,138.4z"/>
		</g>
	</g>
	<g>
		<path class="st0" d="M150.2,29.7C136.7,16.3,118.9,8.9,99.9,8.9v7.3c17,0,33.1,6.6,45.1,18.7c12,12,18.7,28.1,18.7,45.1h7.3
			C171,61,163.6,43.1,150.2,29.7z"/>
	</g>
	<g>
		<path class="st0" d="M140.5,39.3c-11.6-11.6-27-18-43.5-18v7.3c29.9,0,54.2,24.3,54.2,54.2h7.3C158.5,66.4,152.1,50.9,140.5,39.3z
			"/>
	</g>
	<g>
		<path class="st0" d="M94.2,33.8v7.3c24.6,0,44.5,20,44.5,44.5h7.3C146.1,57,122.8,33.8,94.2,33.8z"/>
	</g>
	<g>
		<path class="st0" d="M91.4,46.3v7.3c19.2,0,34.9,15.7,34.9,34.9h7.3C133.6,65.2,114.7,46.3,91.4,46.3z"/>
	</g>
</g>
</svg>
