<?xml version="1.0" encoding="utf-8"?>
<!-- Generator: Adobe Illustrator 25.4.1, SVG Export Plug-In . SVG Version: 6.00 Build 0)  -->
<svg version="1.1" id="Layer_1" xmlns="http://www.w3.org/2000/svg" xmlns:xlink="http://www.w3.org/1999/xlink" x="0px" y="0px"
	 viewBox="0 0 200 200" style="enable-background:new 0 0 200 200;" xml:space="preserve">
<style type="text/css">
	.st0{fill:#FFD295;}
	.st1{fill:#F37226;}
	.st2{fill:#07529E;}
	.st3{fill:#022140;}
</style>
<g>
	<g>
		<polygon class="st0" points="143.4,119.4 143.4,118.3 142.8,119.4 		"/>
	</g>
	<g>
		<polygon class="st0" points="179.8,55.4 126.6,151.6 118.2,156.4 117.8,146.7 171,50.5 		"/>
	</g>
	<g>
		<path class="st0" d="M143.1,98.2l15.5-28V35.4c0-5.9-4.8-10.7-10.7-10.7H47.5c-5.9,0-10.7,4.8-10.7,10.7v129.1
			c0,5.9,4.8,10.7,10.7,10.7h100.4c5.9,0,10.7-4.8,10.7-10.7V96.4l-31,56.1l-6.8,3.9c3.2,1.5,7.4-1.4,10.5-4c0,0,0-0.1,0-0.1
			c0-1.4,1.3-2.6,3-2.6c1.6,0,3,1.2,3,2.6c0,1.4-1.3,2.6-3,2.6c-0.6,0-1.2-0.2-1.6-0.5c-3.3,2.8-7.6,5.9-11.4,4.5
			c-0.9-0.3-1.6-0.9-2.2-1.5l-2.1,1.2l-0.1-3.2c0,0-0.1-0.1-0.1-0.1c-3.2-2.3-8.4-2.1-12.2-2.3c-8.3-0.6-16.8-0.4-25,1.1
			c-2.6,0.5-5.6,1.4-7.1,3.1c0.3,0.3,0.6,0.6,0.9,0.9c1.3,1.5,2.6,3,3.4,4.8c0.1,0.2,0.2,0.4,0.2,0.7c0.1,0.1,0.2,0.3,0.2,0.4
			c1,2.2,1.2,4.5,2.2,6.7c0.3,0.6-0.4,1.1-0.9,0.7c-2.3-1.8-6.9-5.8-8.3-9.6c-0.9-1.7-1.2-3.4-0.5-5c-0.2-0.2-0.5-0.5-0.7-0.7
			c-1.8-1.9-3.7-4.2-4.5-6.6c-0.2-0.4-0.3-0.7-0.4-1.1c-1.9,5.5-2.7,11.2-2.2,17c0.1,0.8-1.2,0.8-1.2,0c0-0.2,0-0.4,0-0.6
			c-0.2-0.1-0.4-0.2-0.5-0.5c-0.5-7.5,0.9-14.6,3.9-21.5c0,0,0,0,0,0c0,0,0,0,0,0c0,0,0-0.1,0.1-0.1c0.3-0.6,1.4-0.2,1.1,0.5
			c-0.1,0.1-0.1,0.3-0.1,0.4c0.4,0,0.7,0.3,0.6,0.7c-0.7,1.8-0.6,3.4-0.1,5c1.1,2.3,3,4.3,4.9,6.2c3.7-4.4,12.9-4.2,17.9-4.6
			c4.5-0.3,9.1-0.4,13.7-0.1c4,0.2,8.4,0.3,12.3,1.4c1,0.3,1.7,0.7,2.4,1.3l-0.3-6.8l0.2-0.3l14.7-26.6H52v-4h81.6l2.6-4.6H52v-4
			h86.3l2.6-4.6H52v-4H143.1z M52,46.5h91.4v4H52V46.5z M52,55.1h91.4v4H52V55.1z M52,63.8h91.4v4H52V63.8z M52,72.4h91.4v4H52V72.4
			z M52,81h91.4v4H52V81z M52,89.6h91.4v4H52V89.6z"/>
	</g>
</g>
</svg>
