<?xml version="1.0" encoding="utf-8"?>
<!-- Generator: Adobe Illustrator 25.4.1, SVG Export Plug-In . SVG Version: 6.00 Build 0)  -->
<svg version="1.1" id="Layer_1" xmlns="http://www.w3.org/2000/svg" xmlns:xlink="http://www.w3.org/1999/xlink" x="0px" y="0px"
	 viewBox="0 0 200 200" style="enable-background:new 0 0 200 200;" xml:space="preserve">
<style type="text/css">
	.st0{fill:#FFD295;}
	.st1{fill:#F37226;}
	.st2{fill:#07529E;}
	.st3{fill:#022140;}
</style>
<g>
	<g>
		<path class="st0" d="M132.7,6.6H67.3c-10.3,0-18.6,8.3-18.6,18.6v149.6c0,10.3,8.3,18.6,18.6,18.6h65.4c10.3,0,18.6-8.3,18.6-18.6
			V25.2C151.2,14.9,142.9,6.6,132.7,6.6z M143.4,173.6H56.6V30h86.8V173.6z"/>
	</g>
	<g>
		<g>
			<polygon class="st0" points="100,63.2 87.6,84.7 112.4,84.7 			"/>
		</g>
		<g>
			<polygon class="st0" points="100,136.8 112.4,115.3 87.6,115.3 			"/>
		</g>
	</g>
	<g>
		<g>
			<polygon class="st0" points="136.5,100 115.1,87.6 115.1,112.4 			"/>
		</g>
		<g>
			<polygon class="st0" points="63.5,100 84.9,112.4 84.9,87.6 			"/>
		</g>
	</g>
</g>
</svg>
