<?xml version="1.0" encoding="utf-8"?>
<!-- Generator: Adobe Illustrator 25.4.1, SVG Export Plug-In . SVG Version: 6.00 Build 0)  -->
<svg version="1.1" id="Layer_1" xmlns="http://www.w3.org/2000/svg" xmlns:xlink="http://www.w3.org/1999/xlink" x="0px" y="0px"
	 viewBox="0 0 200 200" style="enable-background:new 0 0 200 200;" xml:space="preserve">
<style type="text/css">
	.st0{fill:#FFD295;}
	.st1{fill:#F37226;}
	.st2{fill:#07529E;}
	.st3{fill:#022140;}
</style>
<g>
	<g>
		<path class="st0" d="M173.6,8.1h-123c-7.1,0-12.9,5.8-12.9,12.9v158.1c0,7.1,5.8,12.9,12.9,12.9h123c7.1,0,12.9-5.8,12.9-12.9
			V20.9C186.5,13.8,180.7,8.1,173.6,8.1z M75.5,168.3H46.9v-40.1h28.6V168.3z M75.5,116.8H46.9V76.7h28.6V116.8z M75.5,65.3H46.9
			V25.3h28.6V65.3z M109.5,168.3H80.9v-40.1h28.6V168.3z M109.5,116.8H80.9V76.7h28.6V116.8z M109.5,65.3H80.9V25.3h28.6V65.3z
			 M143.4,168.3h-28.6v-40.1h28.6V168.3z M143.4,116.8h-28.6V76.7h28.6V116.8z M143.4,65.3h-28.6V25.3h28.6V65.3z M177.3,168.3
			h-28.6v-40.1h28.6V168.3z M177.3,116.8h-28.6V76.7h28.6V116.8z M177.3,65.3h-28.6V25.3h28.6V65.3z"/>
	</g>
	<g>
		<path class="st0" d="M34.5,180.2v-11.9H24.1v-40.1h10.4v-11.4H24.1V76.7h10.4V46.7h-8.1c-7.1,0-12.9,5.8-12.9,12.9v119.5
			c0,7.1,5.8,12.9,12.9,12.9H40C36.7,189.2,34.5,185,34.5,180.2z"/>
	</g>
</g>
</svg>
