<?xml version="1.0" encoding="utf-8"?>
<!-- Generator: Adobe Illustrator 25.4.1, SVG Export Plug-In . SVG Version: 6.00 Build 0)  -->
<svg version="1.1" id="Layer_1" xmlns="http://www.w3.org/2000/svg" xmlns:xlink="http://www.w3.org/1999/xlink" x="0px" y="0px"
	 viewBox="0 0 200 200" style="enable-background:new 0 0 200 200;" xml:space="preserve">
<style type="text/css">
	.st0{fill:#FFD295;}
	.st1{fill:#F37226;}
	.st2{fill:#07529E;}
	.st3{fill:#022140;}
</style>
<g>
	<g>
		<path class="st0" d="M174.4,28.6h-0.6h-11H37.1h-11h-0.6c-12.7,0-23,10.3-23,23v0.6v11v41.5v1.5v11c0,13,10.6,23.6,23.6,23.6H37
			c0,0,0.1,0,0.1,0h58.8v22.6H45.1v8.1h109.8v-8.1h-50.9v-22.6h58.8c0,0,0.1,0,0.1,0h10.9c13,0,23.6-10.6,23.6-23.6v-11v-0.9
			c0-0.2,0-0.4,0-0.5V51.6C197.4,38.9,187.1,28.6,174.4,28.6z M102.2,48.2h34.3v21.3h-34.3V48.2z M59.9,122.5H25.6v-21.3h34.3V122.5
			z M60.5,96H26.3V74.7h34.3V96z M60.5,69.5H26.3V48.2h34.3V69.5z M97.8,122.5H63.5v-21.3h34.3V122.5z M98.5,96H64.2V74.7h34.3V96z
			 M98.5,69.5H64.2V48.2h34.3V69.5z M135.8,122.5h-34.3v-21.3h34.3V122.5z M137.7,97.3h-36.8V73.4h36.8V97.3z M173.7,122.5h-34.3
			v-21.3h34.3V122.5z M174.4,96h-34.3V74.7h34.3V96z M174.4,69.5h-34.3V48.2h34.3V69.5z"/>
	</g>
	<g>
		<polygon class="st0" points="35,94.8 32.5,85.4 35,75.9 33.6,75.9 33.6,75.9 32.4,75.9 32.4,75.9 31.3,75.9 28.8,85.4 31.3,94.8 
					"/>
	</g>
	<g>
		<rect x="103.4" y="75.9" class="st0" width="31.8" height="18.8"/>
	</g>
</g>
</svg>
